<svg width="47" height="41" viewBox="0 0 47 41" fill="none" xmlns="http://www.w3.org/2000/svg">
<mask id="mask0_1_857" style="mask-type:luminance" maskUnits="userSpaceOnUse" x="0" y="-20" width="58" height="61">
<path d="M0.669678 0.443756L34.6275 -19.0244L57.986 21.4011L24.0281 40.8717L0.669678 0.443756Z" fill="white"/>
</mask>
<g mask="url(#mask0_1_857)">
<mask id="mask1_1_857" style="mask-type:luminance" maskUnits="userSpaceOnUse" x="0" y="-20" width="58" height="61">
<path d="M0.667175 0.441341L34.625 -19.0294L57.9835 21.3961L24.0256 40.8668L0.667175 0.441341Z" fill="white"/>
</mask>
<g mask="url(#mask1_1_857)">
<path d="M29.2125 11.0024L12.5107 10.7575L9.56113 5.65311L29.2551 5.95043L32.0442 5.98791L43.5792 6.1778L46.4034 1.14585L34.8584 0.980946L5.15681 0.521225L0.674744 0.453766L9.52601 15.7745L10.5895 15.7795L10.6321 15.777L15.4553 15.8544L19.5712 15.9269L26.3984 16.0293L32.1646 16.1143L23.993 30.633L18.3647 20.8939L12.4756 20.8789L21.0911 35.7849L24.0432 40.8968L40.7575 11.1898L37.0379 11.1348L34.9963 11.0998L29.2125 11.0024Z" fill="#EC1E24"/>
</g>
</g>
</svg>
