<svg width="208" height="44" viewBox="0 0 208 44" fill="none" xmlns="http://www.w3.org/2000/svg">
<g clip-path="url(#clip0_2_139)">
<path d="M60.6513 12.6171C59.2793 11.8651 58.088 11.4878 57.0797 11.4878C56.39 11.4878 55.8557 11.6252 55.4745 11.8976C55.0983 12.1649 54.9127 12.5672 54.9127 13.1068C54.9127 13.6065 55.186 14.0463 55.7353 14.426C56.2821 14.8008 57.0145 15.1556 57.9325 15.4954C58.6749 15.7702 59.3094 16.0825 59.8387 16.4348C60.3654 16.7821 60.8043 17.2618 61.1529 17.874C61.5066 18.4811 61.6847 19.2531 61.6847 20.1925C61.6847 21.0071 61.474 21.7591 61.0526 22.4512C60.6312 23.1383 60.0117 23.6854 59.1966 24.0902C58.3789 24.4974 57.4108 24.6998 56.2871 24.6998C55.3441 24.6998 54.406 24.5624 53.478 24.2901C52.5475 24.0102 51.6822 23.5855 50.8795 23.0108L52.254 20.6023C52.7958 21.0021 53.4178 21.3319 54.1201 21.5917C54.8224 21.8465 55.4494 21.9715 56.0062 21.9715C56.6608 21.9715 57.2302 21.8316 57.7118 21.5517C58.1983 21.2719 58.4441 20.8197 58.4441 20.1925C58.4441 19.388 57.6817 18.6835 56.1567 18.0838C55.2538 17.7315 54.5013 17.3917 53.8994 17.0644C53.3024 16.7321 52.7883 16.2624 52.3543 15.6553C51.9179 15.0432 51.7022 14.2736 51.7022 13.3467C51.7022 11.995 52.1462 10.9057 53.0366 10.0787C53.932 9.25417 55.1233 8.80445 56.6082 8.72949C57.777 8.72949 58.7551 8.86441 59.5377 9.12925C60.3252 9.38909 61.0927 9.76386 61.8352 10.2486L60.6513 12.6171Z" fill="#EC1E24"/>
<path d="M70.1976 16.6947C70.1976 15.2706 70.5588 13.9414 71.2812 12.7071C72.0035 11.4679 72.9792 10.4835 74.2107 9.7489C75.4472 9.01684 76.7891 8.64957 78.2338 8.64957C79.6785 8.64957 81.0153 9.01684 82.2468 9.7489C83.4833 10.4835 84.469 11.4679 85.2064 12.7071C85.9413 13.9414 86.31 15.2706 86.31 16.6947C86.31 18.1488 85.9413 19.488 85.2064 20.7123C84.469 21.9315 83.4833 22.9009 82.2468 23.6205C81.0153 24.3401 79.6785 24.6998 78.2338 24.6998C76.774 24.6998 75.4297 24.3401 74.2007 23.6205C72.9767 22.9009 72.0035 21.9315 71.2812 20.7123C70.5588 19.488 70.1976 18.1488 70.1976 16.6947ZM73.4081 16.6947C73.4081 17.6091 73.6238 18.4486 74.0602 19.2132C74.4941 19.9802 75.086 20.5898 75.836 21.0421C76.5909 21.4893 77.4236 21.7117 78.3341 21.7117C79.222 21.7117 80.0321 21.4893 80.762 21.0421C81.4893 20.5898 82.0612 19.9827 82.4776 19.2232C82.8914 18.4636 83.0996 17.6216 83.0996 16.6947C83.0996 15.7553 82.8839 14.9033 82.4575 14.1362C82.0286 13.3642 81.4467 12.7546 80.7118 12.3074C79.9744 11.8626 79.1568 11.6378 78.2538 11.6378C77.3509 11.6378 76.5307 11.8626 75.7958 12.3074C75.0584 12.7546 74.4766 13.3642 74.0502 14.1362C73.6213 14.9033 73.4081 15.7553 73.4081 16.6947Z" fill="#EC1E24"/>
<path d="M98.9634 8.81943V21.5417H106.378V24.5299H95.8533V8.81943H98.9634Z" fill="#EC1E24"/>
<path d="M126.778 8.81943V11.8076H119.133V15.1556H125.905V18.1438H119.133V21.5417H127.079V24.5299H116.023V8.81943H126.778Z" fill="#EC1E24"/>
<path d="M149.782 8.81943L142.578 25.2595L135.375 8.81943H139.107L142.709 17.6741L146.09 8.81943H149.782Z" fill="#EC1E24"/>
<path d="M162.045 8.81943V24.5299H158.935V8.81943H162.045Z" fill="#EC1E24"/>
<path d="M180.663 16.2449C181.491 16.6322 182.138 17.1344 182.599 17.754C183.066 18.3736 183.302 19.0882 183.302 19.8927C183.302 21.4917 182.775 22.666 181.726 23.4106C180.675 24.1576 179.364 24.5299 177.794 24.5299H172.547V8.81943H177.172C178.842 8.81943 180.156 9.15922 181.114 9.83881C182.07 10.5134 182.549 11.4878 182.549 12.767C182.549 13.5541 182.384 14.2436 182.057 14.8358C181.729 15.4229 181.265 15.8926 180.663 16.2449ZM175.657 15.2455H177.543C178.11 15.2455 178.551 15.0731 178.867 14.7258C179.181 14.3736 179.339 13.9413 179.339 13.4266C179.339 12.902 179.158 12.5022 178.797 12.2274C178.441 11.9475 177.949 11.8076 177.322 11.8076H175.657V15.2455ZM177.643 21.6516C178.37 21.6516 178.96 21.5067 179.409 21.2119C179.863 20.9196 180.091 20.4799 180.091 19.8927C180.091 18.7884 179.203 18.2337 177.432 18.2337H175.657V21.6516H177.643Z" fill="#EC1E24"/>
<path d="M203.6 8.81943V11.8076H195.955V15.1556H202.727V18.1438H195.955V21.5417H203.901V24.5299H192.845V8.81943H203.6Z" fill="#EC1E24"/>
<path d="M60.1597 37.4376C60.0243 37.5451 59.8136 37.655 59.5277 37.7674C59.2392 37.8724 58.9257 37.9273 58.5846 37.9273C58.0353 37.9273 57.5563 37.8124 57.1499 37.5776C56.7486 37.3377 56.4401 37.0179 56.2269 36.6181C56.0188 36.2184 55.9159 35.7786 55.9159 35.2989C55.9159 34.7743 56.0188 34.307 56.2269 33.8998C56.4401 33.4875 56.7386 33.1677 57.1198 32.9404C57.5061 32.708 57.9551 32.5906 58.4642 32.5906C58.7777 32.5906 59.0687 32.6355 59.3371 32.7205C59.6104 32.8004 59.8512 32.9054 60.0594 33.0303L59.6481 34.0097C59.2718 33.7249 58.8881 33.58 58.4943 33.58C58.2259 33.58 57.9751 33.6549 57.7419 33.7998C57.5136 33.9473 57.3305 34.1471 57.1901 34.3995C57.0546 34.6543 56.9894 34.9342 56.9894 35.239C56.9894 35.5788 57.0521 35.8761 57.18 36.1284C57.3054 36.3833 57.486 36.5782 57.7218 36.7181C57.9626 36.858 58.2435 36.9279 58.5645 36.9279C58.8179 36.9279 59.0461 36.888 59.2468 36.808C59.4524 36.7231 59.618 36.6231 59.7384 36.5082L60.1597 37.4376Z" fill="#EC1E24"/>
<path d="M63.1605 35.259C63.1605 34.7867 63.2759 34.347 63.5116 33.9398C63.7524 33.5275 64.076 33.2002 64.4848 32.9604C64.8987 32.7155 65.3476 32.5906 65.8292 32.5906C66.3032 32.5906 66.7447 32.7155 67.1535 32.9604C67.5673 33.2002 67.8959 33.5275 68.1367 33.9398C68.3825 34.347 68.5079 34.7867 68.5079 35.259C68.5079 35.7462 68.3825 36.1934 68.1367 36.5981C67.8959 37.0054 67.5673 37.3277 67.1535 37.5676C66.7447 37.8074 66.3032 37.9273 65.8292 37.9273C65.3401 37.9273 64.8911 37.8074 64.4848 37.5676C64.076 37.3277 63.7524 37.0054 63.5116 36.5981C63.2759 36.1934 63.1605 35.7462 63.1605 35.259ZM64.224 35.259C64.224 35.5663 64.2942 35.8486 64.4346 36.1084C64.5801 36.3633 64.7783 36.5632 65.0266 36.7081C65.2799 36.8555 65.5583 36.9279 65.8593 36.9279C66.1527 36.9279 66.4211 36.8555 66.6619 36.7081C66.9077 36.5632 67.0983 36.3633 67.2337 36.1084C67.3742 35.8561 67.4444 35.5738 67.4444 35.259C67.4444 34.9541 67.3692 34.6743 67.2237 34.4195C67.0833 34.1596 66.8876 33.9572 66.6418 33.8098C66.401 33.6574 66.1302 33.58 65.8292 33.58C65.5332 33.58 65.2623 33.6574 65.0165 33.8098C64.7758 33.9572 64.5801 34.1596 64.4346 34.4195C64.2942 34.6743 64.224 34.9541 64.224 35.259Z" fill="#EC1E24"/>
<path d="M77.2276 32.4307V37.8674H76.1942V35.3789L74.4787 37.7974H74.4686L72.8233 35.5288V37.8674H71.82V32.4307H71.8301L74.4887 36.1884L77.2075 32.4307H77.2276Z" fill="#EC1E24"/>
<path d="M84.1329 32.6405V33.6399H81.8856V34.8192H83.832V35.8186H81.8856V37.8674H80.8523V32.6405H84.1329Z" fill="#EC1E24"/>
<path d="M87.0949 35.259C87.0949 34.7867 87.2103 34.347 87.4461 33.9398C87.6869 33.5275 88.0104 33.2002 88.4193 32.9604C88.8331 32.7155 89.2821 32.5906 89.7636 32.5906C90.2377 32.5906 90.6791 32.7155 91.0879 32.9604C91.5018 33.2002 91.8303 33.5275 92.0711 33.9398C92.3169 34.347 92.4423 34.7867 92.4423 35.259C92.4423 35.7462 92.3169 36.1934 92.0711 36.5981C91.8303 37.0054 91.5018 37.3277 91.0879 37.5676C90.6791 37.8074 90.2377 37.9273 89.7636 37.9273C89.2745 37.9273 88.8256 37.8074 88.4193 37.5676C88.0104 37.3277 87.6869 37.0054 87.4461 36.5981C87.2103 36.1934 87.0949 35.7462 87.0949 35.259ZM88.1584 35.259C88.1584 35.5663 88.2286 35.8486 88.3691 36.1084C88.5146 36.3633 88.7127 36.5632 88.961 36.7081C89.2143 36.8555 89.4927 36.9279 89.7937 36.9279C90.0872 36.9279 90.3555 36.8555 90.5963 36.7081C90.8421 36.5632 91.0327 36.3633 91.1682 36.1084C91.3086 35.8561 91.3789 35.5738 91.3789 35.259C91.3789 34.9541 91.3036 34.6743 91.1582 34.4195C91.0177 34.1596 90.8221 33.9572 90.5763 33.8098C90.3355 33.6574 90.0646 33.58 89.7636 33.58C89.4677 33.58 89.1968 33.6574 88.951 33.8098C88.7102 33.9572 88.5146 34.1596 88.3691 34.4195C88.2286 34.6743 88.1584 34.9541 88.1584 35.259Z" fill="#EC1E24"/>
<path d="M98.5837 37.8674L97.4801 36.2084H96.7878V37.8674H95.7545V32.6405H97.3497C97.9968 32.6405 98.4984 32.8005 98.8545 33.1203C99.2157 33.4351 99.3963 33.8648 99.3963 34.4095C99.3963 34.7293 99.3286 35.0291 99.1957 35.3089C99.0602 35.5888 98.8545 35.8086 98.5736 35.9685L99.7876 37.8674H98.5837ZM96.7878 35.209H97.5302C97.8036 35.209 98.0043 35.129 98.1322 34.9691C98.2651 34.8042 98.3329 34.6268 98.3329 34.4395C98.3329 34.2546 98.2752 34.0747 98.1623 33.8998C98.0544 33.7274 97.8438 33.6399 97.5302 33.6399H96.7878V35.209Z" fill="#EC1E24"/>
<path d="M106.101 32.6405V33.6399H104.827V37.8674H103.794V33.6399H102.57V32.6405H106.101Z" fill="#EC1E24"/>
<path d="M111.973 36.848H110.238L109.806 37.8674H108.793L111.15 32.4407H111.211L113.578 37.8674H112.374L111.973 36.848ZM111.632 35.9785L111.12 34.7093L110.599 35.9785H111.632Z" fill="#EC1E24"/>
<path d="M119.321 35.119C119.594 35.2465 119.808 35.4139 119.963 35.6187C120.116 35.8186 120.194 36.056 120.194 36.3283C120.194 36.8555 120.018 37.2453 119.672 37.4976C119.323 37.745 118.885 37.8674 118.358 37.8674H116.612V32.6405H118.157C118.711 32.6405 119.145 32.7555 119.461 32.9803C119.782 33.2077 119.943 33.535 119.943 33.9597C119.943 34.2196 119.885 34.4495 119.772 34.6493C119.665 34.8442 119.514 34.9991 119.321 35.119ZM117.646 34.7793H118.278C118.463 34.7793 118.611 34.7243 118.719 34.6094C118.824 34.4894 118.88 34.347 118.88 34.1796C118.88 34.0072 118.819 33.8748 118.699 33.7799C118.579 33.6874 118.413 33.6399 118.207 33.6399H117.646V34.7793ZM118.308 36.908C118.553 36.908 118.752 36.863 118.9 36.768C119.045 36.6681 119.12 36.5232 119.12 36.3283C119.12 35.9635 118.824 35.7786 118.237 35.7786H117.646V36.908H118.308Z" fill="#EC1E24"/>
<path d="M124.534 32.6405V36.878H127.002V37.8674H123.501V32.6405H124.534Z" fill="#EC1E24"/>
<path d="M133.928 32.6405V33.6399H131.38V34.7493H133.637V35.7487H131.38V36.878H134.028V37.8674H130.346V32.6405H133.928Z" fill="#EC1E24"/>
<path d="M145.246 32.6405V33.6399H142.999V34.8192H144.945V35.8186H142.999V37.8674H141.965V32.6405H145.246Z" fill="#EC1E24"/>
<path d="M148.208 35.259C148.208 34.7867 148.323 34.347 148.559 33.9398C148.8 33.5275 149.123 33.2002 149.532 32.9604C149.946 32.7155 150.395 32.5906 150.877 32.5906C151.351 32.5906 151.792 32.7155 152.201 32.9604C152.615 33.2002 152.943 33.5275 153.184 33.9398C153.43 34.347 153.555 34.7867 153.555 35.259C153.555 35.7462 153.43 36.1934 153.184 36.5981C152.943 37.0054 152.615 37.3277 152.201 37.5676C151.792 37.8074 151.351 37.9273 150.877 37.9273C150.387 37.9273 149.939 37.8074 149.532 37.5676C149.123 37.3277 148.8 37.0054 148.559 36.5981C148.323 36.1934 148.208 35.7462 148.208 35.259ZM149.271 35.259C149.271 35.5663 149.342 35.8486 149.482 36.1084C149.628 36.3633 149.826 36.5632 150.074 36.7081C150.327 36.8555 150.606 36.9279 150.907 36.9279C151.2 36.9279 151.468 36.8555 151.709 36.7081C151.955 36.5632 152.146 36.3633 152.281 36.1084C152.422 35.8561 152.492 35.5738 152.492 35.259C152.492 34.9541 152.417 34.6743 152.271 34.4195C152.131 34.1596 151.935 33.9572 151.689 33.8098C151.448 33.6574 151.178 33.58 150.877 33.58C150.581 33.58 150.31 33.6574 150.064 33.8098C149.823 33.9572 149.628 34.1596 149.482 34.4195C149.342 34.6743 149.271 34.9541 149.271 35.259Z" fill="#EC1E24"/>
<path d="M156.556 35.259C156.556 34.7867 156.672 34.347 156.908 33.9398C157.148 33.5275 157.472 33.2002 157.881 32.9604C158.295 32.7155 158.744 32.5906 159.225 32.5906C159.699 32.5906 160.141 32.7155 160.549 32.9604C160.963 33.2002 161.292 33.5275 161.533 33.9398C161.778 34.347 161.904 34.7867 161.904 35.259C161.904 35.7462 161.778 36.1934 161.533 36.5981C161.292 37.0054 160.963 37.3277 160.549 37.5676C160.141 37.8074 159.699 37.9273 159.225 37.9273C158.736 37.9273 158.287 37.8074 157.881 37.5676C157.472 37.3277 157.148 37.0054 156.908 36.5981C156.672 36.1934 156.556 35.7462 156.556 35.259ZM157.62 35.259C157.62 35.5663 157.69 35.8486 157.831 36.1084C157.976 36.3633 158.174 36.5632 158.422 36.7081C158.676 36.8555 158.954 36.9279 159.255 36.9279C159.549 36.9279 159.817 36.8555 160.058 36.7081C160.304 36.5632 160.494 36.3633 160.63 36.1084C160.77 35.8561 160.84 35.5738 160.84 35.259C160.84 34.9541 160.765 34.6743 160.62 34.4195C160.479 34.1596 160.284 33.9572 160.038 33.8098C159.797 33.6574 159.526 33.58 159.225 33.58C158.929 33.58 158.658 33.6574 158.412 33.8098C158.172 33.9572 157.976 34.1596 157.831 34.4195C157.69 34.6743 157.62 34.9541 157.62 35.259Z" fill="#EC1E24"/>
<path d="M168.396 32.6405V33.6399H167.122V37.8674H166.089V33.6399H164.865V32.6405H168.396Z" fill="#EC1E24"/>
<path d="M176.034 38.0973L174.79 34.9991L173.335 38.1073L171.228 32.6805H172.432L173.466 35.6987L174.268 33.7099L173.857 32.6805H174.88L176.054 35.5788L176.947 32.6805H178.061L176.034 38.0973Z" fill="#EC1E24"/>
<path d="M184.818 32.6405V33.6399H182.27V34.7493H184.527V35.7487H182.27V36.878H184.918V37.8674H181.236V32.6405H184.818Z" fill="#EC1E24"/>
<path d="M190.859 36.848H189.123L188.691 37.8674H187.678L190.036 32.4407H190.096L192.464 37.8674H191.26L190.859 36.848ZM190.517 35.9785L190.006 34.7093L189.484 35.9785H190.517Z" fill="#EC1E24"/>
<path d="M198.327 37.8674L197.223 36.2084H196.531V37.8674H195.498V32.6405H197.093C197.74 32.6405 198.241 32.8005 198.598 33.1203C198.959 33.4351 199.139 33.8648 199.139 34.4095C199.139 34.7293 199.072 35.0291 198.939 35.3089C198.803 35.5888 198.598 35.8086 198.317 35.9685L199.531 37.8674H198.327ZM196.531 35.209H197.273C197.547 35.209 197.747 35.129 197.875 34.9691C198.008 34.8042 198.076 34.6268 198.076 34.4395C198.076 34.2546 198.018 34.0747 197.905 33.8998C197.798 33.7274 197.587 33.6399 197.273 33.6399H196.531V35.209Z" fill="#EC1E24"/>
<mask id="mask0_2_139" style="mask-type:luminance" maskUnits="userSpaceOnUse" x="0" y="3" width="47" height="42">
<path d="M0.669678 3.11145H46.8724V44.0466H0.669678V3.11145Z" fill="white"/>
</mask>
<g mask="url(#mask0_2_139)">
<mask id="mask1_2_139" style="mask-type:luminance" maskUnits="userSpaceOnUse" x="0" y="-17" width="58" height="61">
<path d="M0.669678 3.44376L34.6275 -16.0244L57.986 24.4011L24.0281 43.8717L0.669678 3.44376Z" fill="white"/>
</mask>
<g mask="url(#mask1_2_139)">
<mask id="mask2_2_139" style="mask-type:luminance" maskUnits="userSpaceOnUse" x="0" y="-17" width="58" height="61">
<path d="M0.667175 3.44134L34.625 -16.0294L57.9835 24.3961L24.0256 43.8668L0.667175 3.44134Z" fill="white"/>
</mask>
<g mask="url(#mask2_2_139)">
<path d="M29.2125 14.0024L12.5107 13.7575L9.56113 8.65311L29.2551 8.95043L32.0442 8.98791L43.5792 9.1778L46.4034 4.14585L34.8584 3.98095L5.15681 3.52122L0.674744 3.45377L9.52601 18.7745L10.5895 18.7795L10.6321 18.777L15.4553 18.8544L19.5712 18.9269L26.3984 19.0293L32.1646 19.1143L23.993 33.633L18.3647 23.8939L12.4756 23.8789L21.0911 38.7849L24.0432 43.8968L40.7575 14.1898L37.0379 14.1348L34.9963 14.0998L29.2125 14.0024Z" fill="#EC1E24"/>
</g>
</g>
</g>
</g>
<defs>
<clipPath id="clip0_2_139">
<rect width="208" height="44" fill="white"/>
</clipPath>
</defs>
</svg>
